<?xml version="1.0" encoding="utf-8"?>
<!-- Generator: Adobe Illustrator 16.0.0, SVG Export Plug-In . SVG Version: 6.00 Build 0)  -->
<!DOCTYPE svg PUBLIC "-//W3C//DTD SVG 1.1//EN" "http://www.w3.org/Graphics/SVG/1.1/DTD/svg11.dtd">
<svg version="1.1" id="Layer_1" xmlns="http://www.w3.org/2000/svg" xmlns:xlink="http://www.w3.org/1999/xlink" x="0px" y="0px"
	 width="837.763px" height="401.951px" viewBox="0 0 837.763 401.951" enable-background="new 0 0 837.763 401.951"
	 xml:space="preserve">
<g>
	<path fill="#258EBC" d="M522.149,92.541h-7.696v14.04c0,3.6,0.056,6.479,3.904,6.479c1.282,0,2.677-0.3,3.848-0.96l0.168,4.26
		c-1.506,0.72-3.458,1.02-5.075,1.02c-6.191,0-7.195-3.6-7.195-9.42V92.541h-5.688v-3.959h5.688v-7.98h4.351v7.98h7.696V92.541z"/>
	<path fill="#258EBC" d="M555.389,71.302h4.351v21.179h0.111c1.171-2.22,4.294-4.62,8.365-4.62c6.86,0,9.928,4.68,9.928,11.459
		v17.339h-4.351V99.801c0-4.68-1.896-7.62-5.968-7.62c-5.633,0-8.086,4.38-8.086,10.8v13.679h-4.351V71.302z"/>
	<path fill="#258EBC" d="M637.542,111.561c-3.067,4.26-6.748,5.82-11.601,5.82c-8.198,0-13.218-6.6-13.218-14.76
		c0-8.7,5.688-14.759,13.385-14.759c7.362,0,12.382,5.4,12.382,14.699v1.5h-21.082c0.335,4.86,3.793,9,8.533,9
		c3.736,0,6.246-1.439,8.31-4.26L637.542,111.561z M633.804,100.101c-0.167-4.74-3.067-7.92-7.863-7.92s-7.976,3.18-8.533,7.92
		H633.804z"/>
</g>
<g>
	<path fill="#258EBC" d="M533.917,269.06c0,10.14-5.075,15.659-14.222,15.659c-5.075,0-9.146-1.439-12.827-5.34l3.123-3.84
		c2.733,3.18,5.688,4.859,9.704,4.859c7.809,0,9.872-5.399,9.872-11.339v-3.6h-0.112c-2.063,3.6-5.744,5.22-9.202,5.22
		c-8.198,0-13.887-6.12-13.887-14.399c0-9.18,5.577-14.76,13.887-14.76c3.514,0,7.474,1.8,9.202,5.52h0.112v-4.8h4.35V269.06z
		 M520.252,266.36c5.968,0,9.314-4.8,9.314-10.199c0-6.06-3.793-10.32-9.314-10.32c-5.465,0-9.202,4.561-9.202,10.44
		C511.05,261.98,515.177,266.36,520.252,266.36z"/>
	<path fill="#258EBC" d="M569.444,245.84c2.678-2.939,6.581-4.319,10.374-4.319c7.696,0,10.931,3.96,10.931,11.88v12.06
		c0,1.619,0.168,3.419,0.391,4.859h-4.183c-0.279-1.26-0.279-3-0.279-4.2h-0.111c-1.729,2.88-4.629,4.92-8.589,4.92
		c-5.298,0-9.704-2.88-9.704-8.34c0-9.299,10.039-9.839,16.452-9.839h1.674v-0.84c0-4.08-2.398-6.181-6.47-6.181
		c-2.788,0-5.688,1.021-7.752,3.061L569.444,245.84z M582.048,256.821c-5.521,0-9.091,1.619-9.091,5.399
		c0,3.54,2.454,4.859,5.745,4.859c5.019,0,7.584-3.899,7.696-8.459v-1.8H582.048z"/>
	<path fill="#258EBC" d="M627.001,224.961h4.35v45.358h-4.35V224.961z"/>
	<path fill="#258EBC" d="M668.272,224.961h4.35v45.358h-4.35V224.961z"/>
	<path fill="#258EBC" d="M732.465,265.22c-3.067,4.26-6.748,5.819-11.601,5.819c-8.198,0-13.218-6.6-13.218-14.759
		c0-8.7,5.688-14.76,13.385-14.76c7.362,0,12.382,5.399,12.382,14.699v1.5h-21.082c0.335,4.86,3.793,9,8.533,9
		c3.736,0,6.246-1.44,8.31-4.26L732.465,265.22z M728.728,253.76c-0.167-4.739-3.067-7.92-7.863-7.92s-7.976,3.181-8.533,7.92
		H728.728z"/>
	<path fill="#258EBC" d="M768.048,248.901c0-2.58-0.223-4.8-0.223-6.66h4.127c0,1.5,0.111,3.061,0.111,4.62h0.111
		c1.171-2.76,4.406-5.34,8.7-5.34c0.558,0,1.172,0.06,1.785,0.3l-0.279,4.74c-0.725-0.24-1.562-0.36-2.342-0.36
		c-5.299,0-7.641,4.02-7.641,10.439v13.68h-4.351V248.901z"/>
	<path fill="#258EBC" d="M825.159,276.74c-1.729,4.739-3.458,7.979-8.7,7.979c-1.228,0-2.733-0.12-3.904-0.72l0.558-4.08
		c0.893,0.36,1.841,0.479,3.067,0.479c2.845,0,3.904-1.859,4.853-4.619l1.784-5.28l-10.819-28.259h5.075l8.087,22.02h0.111
		l7.752-22.02h4.741L825.159,276.74z"/>
</g>
<g>
	<path fill="#8EC044" d="M526.444,172.761c-1.841-2.4-3.96-3.42-6.581-3.42c-5.856,0-8.812,4.68-8.812,10.439
		s3.514,10.439,8.812,10.439c2.844,0,5.019-1.08,6.637-3.479l3.234,3.3c-2.51,3.12-6.079,4.5-9.871,4.5
		c-8.087,0-13.497-6.12-13.497-14.76c0-8.52,5.466-14.759,13.497-14.759c3.848,0,7.417,1.38,10.038,4.44L526.444,172.761z"/>
	<path fill="#8EC044" d="M575.021,165.021c8.031,0,13.943,6,13.943,14.759s-5.912,14.76-13.943,14.76c-8.03,0-13.942-6-13.942-14.76
		S566.991,165.021,575.021,165.021z M575.021,190.22c5.634,0,9.259-4.56,9.259-10.439s-3.625-10.439-9.259-10.439
		c-5.633,0-9.258,4.56-9.258,10.439S569.388,190.22,575.021,190.22z"/>
	<path fill="#8EC044" d="M623.599,172.401c0-2.58-0.223-4.8-0.223-6.66h4.127c0,1.5,0.111,3.06,0.111,4.62h0.111
		c1.171-2.76,4.406-5.34,8.7-5.34c0.558,0,1.172,0.06,1.785,0.3l-0.279,4.74c-0.725-0.24-1.562-0.36-2.342-0.36
		c-5.299,0-7.641,4.02-7.641,10.44v13.679h-4.351V172.401z"/>
	<path fill="#8EC044" d="M671.116,172.401c0-2.58-0.223-4.8-0.223-6.66h4.127c0,1.5,0.111,3.06,0.111,4.62h0.111
		c1.171-2.76,4.406-5.34,8.7-5.34c6.86,0,9.928,4.68,9.928,11.459v17.339h-4.351v-16.859c0-4.68-1.896-7.62-5.968-7.62
		c-5.633,0-8.086,4.38-8.086,10.8v13.679h-4.351V172.401z"/>
	<path fill="#8EC044" d="M753.325,188.721c-3.067,4.26-6.748,5.82-11.601,5.82c-8.198,0-13.218-6.6-13.218-14.76
		c0-8.7,5.688-14.759,13.385-14.759c7.362,0,12.382,5.4,12.382,14.699v1.5h-21.082c0.335,4.86,3.793,9,8.533,9
		c3.736,0,6.246-1.439,8.31-4.26L753.325,188.721z M749.587,177.261c-0.167-4.74-3.067-7.92-7.863-7.92s-7.976,3.18-8.533,7.92
		H749.587z"/>
	<path fill="#8EC044" d="M788.852,172.401c0-2.58-0.223-4.8-0.223-6.66h4.127c0,1.5,0.111,3.06,0.111,4.62h0.111
		c1.171-2.76,4.406-5.34,8.7-5.34c0.558,0,1.172,0.06,1.785,0.3l-0.279,4.74c-0.725-0.24-1.562-0.36-2.342-0.36
		c-5.299,0-7.641,4.02-7.641,10.44v13.679h-4.351V172.401z"/>
</g>
<g>
	<path fill="#0B87C7" d="M405.761,200.975c0,108.974-90.014,197.315-201.049,197.315C93.674,398.291,3.66,309.949,3.66,200.975
		C3.66,92.001,93.674,3.66,204.711,3.66C315.747,3.66,405.761,92.001,405.761,200.975"/>
	<path fill="#C8D41C" d="M204.711,0C91.833,0,0,90.157,0,200.975s91.833,200.976,204.711,200.976
		c112.877,0,204.709-90.157,204.709-200.976S317.588,0,204.711,0z M401.954,193.859c-7.973-18.32-23.348-34.523-42.816-44.383
		c-17.136-8.676-37.418-12.061-57.715-9.916c-3.122-6.708-6.598-13.294-10.419-19.734c12.589-2.509,24.452-3.515,35.766-3.051
		c25.954,1.064,49.765,10.471,66.213,25.981C398.205,158.979,401.297,176.119,401.954,193.859z M188.409,116.763
		c-6.352-7.773-12.986-15.521-20.034-22.895c11.077-8.696,22.15-16.427,33.897-23.262c9.981-5.808,19.917-10.589,29.779-14.383
		c8.647,6.93,16.766,14.295,24.233,22.079c5.218,5.438,10.132,11.072,14.744,16.871C239.633,98.943,212.446,106.034,188.409,116.763
		z M272.784,97.408c5.202,6.706,9.998,13.629,14.365,20.741c-11.784,2.571-24.179,6.403-37.339,11.553
		c-13.986,5.473-26.37,11.448-37.304,18.017c-5.313-7.363-10.846-14.4-15.811-20.65c-2.2-2.77-4.433-5.558-6.695-8.347
		C214.041,108.074,241.271,101.071,272.784,97.408z M186.131,117.804c-3.001,1.38-5.963,2.805-8.868,4.3
		c-12.717,6.549-24.356,14.216-34.788,22.814c-4.661-4.501-10.042-9.09-16.52-14.104c1.665-1.56,3.34-3.116,5.032-4.672
		c12.379-11.387,23.949-21.608,35.474-30.77C173.37,102.589,179.888,110.178,186.131,117.804z M178.375,124.265
		c3.056-1.574,6.173-3.073,9.337-4.517c2.396,2.949,4.759,5.898,7.085,8.827c4.915,6.188,10.387,13.148,15.641,20.42
		c-10.067,6.225-18.889,12.969-26.558,20.322c-4.664,4.472-8.955,9.181-13.045,14.159c-0.93-1.645-1.864-3.289-2.824-4.918
		c-6.329-10.746-11.789-18.581-17.705-25.404c-1.899-2.19-3.919-4.352-6.091-6.523C154.465,138.208,165.894,130.693,178.375,124.265
		z M185.569,171.078c7.579-7.267,16.31-13.935,26.288-20.091c1.31,1.842,2.607,3.695,3.868,5.564
		c2.992,4.436,5.835,8.985,8.535,13.631c-6.725,5.358-13.114,12.264-19.926,21.528c-6.214,8.448-11.679,17.416-16.395,26.769
		c-4.661-11.197-9.935-22.114-15.817-32.714C176.336,180.581,180.754,175.696,185.569,171.078z M217.733,155.196
		c-1.243-1.842-2.52-3.668-3.809-5.482c10.776-6.46,22.983-12.344,36.773-17.74c13.346-5.223,25.887-9.072,37.787-11.613
		c3.807,6.362,7.275,12.869,10.391,19.498c-5.665,0.728-11.321,1.883-16.899,3.48c-8.688,2.49-16.929,5.879-26.031,9.729
		c-9.006,3.812-20.215,8.555-29.548,15.465c-0.068,0.05-0.135,0.103-0.203,0.154C223.516,164.09,220.696,159.589,217.733,155.196z
		 M391.397,138.052c-16.68-14.164-39.659-22.695-64.529-23.714c-11.762-0.487-24.098,0.599-37.192,3.272
		c-4.281-7.031-8.977-13.881-14.064-20.522c23.849-2.59,42.936-2.231,59.921,1.134c13.896,2.753,33.111,9.003,49.123,23.175
		C387.159,126.819,389.404,132.378,391.397,138.052z M382.137,116.166c-12.566-9.829-28.28-16.791-46.13-20.328
		c-17.59-3.485-37.339-3.806-62.138-1.009c-4.925-6.273-10.206-12.353-15.827-18.212C250.82,69.09,243,61.948,234.685,55.211
		c17.859-6.554,35.454-9.776,52.573-9.6c16.074,0.159,32.218,3.443,47.181,9.53C354.197,72.081,370.492,92.811,382.137,116.166z
		 M204.711,7.319c46.904,0,90.031,16.144,123.936,43.051c-13.31-4.585-27.363-7.053-41.365-7.192
		c-17.857-0.175-36.199,3.283-54.8,10.276C211.46,36.789,187.29,22.76,161.062,12.1C175.108,8.977,189.716,7.319,204.711,7.319z
		 M156.916,13.072c26.788,10.537,51.494,24.585,72.933,41.395c-9.544,3.756-19.154,8.424-28.799,14.037
		c-11.922,6.936-23.143,14.777-34.364,23.598c-6.494-6.672-13.346-13.003-20.662-18.719c-13.936-10.884-35.34-23.813-60.715-26.505
		C106.294,31.188,130.563,19.526,156.916,13.072z M82.446,49.049c25.946,1.984,47.931,15.188,62.086,26.243
		c7.153,5.588,13.864,11.785,20.237,18.32c-11.516,9.166-23.073,19.375-35.429,30.741c-1.796,1.652-3.573,3.305-5.34,4.961
		c-0.253-0.193-0.5-0.383-0.757-0.578c-23.458-17.76-49.011-32.669-76.022-44.369C57.391,71.181,69.235,59.304,82.446,49.049z
		 M7.319,200.975c0-42.856,14.273-82.498,38.387-114.612c27.036,11.658,52.608,26.546,76.071,44.31
		c0.146,0.111,0.286,0.219,0.431,0.329c-8.042,7.625-15.657,15.452-22.165,24.298c-10.46,14.218-17.814,30.886-24.45,46.74
		c-14.677,35.066-29.797,75.898-23.383,116.748l0.049,0.31c0.311,1.98,0.625,3.978,1.014,5.942
		C24.604,291.415,7.319,248.14,7.319,200.975z M56.745,329c-0.977-3.266-1.537-6.798-2.083-10.279l-0.048-0.31
		c-6.316-40.222,8.676-80.673,23.224-115.432c6.579-15.718,13.864-32.236,24.165-46.238c6.475-8.801,14.103-16.613,22.163-24.242
		c6.457,4.985,11.808,9.534,16.435,13.985c-15.161,12.843-27.653,27.706-36.895,44.115c-12.896,22.893-20.641,50.895-23.018,83.228
		c-1.948,26.506-0.185,53.562,2.085,79.33C73.369,345.891,64.661,337.796,56.745,329z M85.384,355.13
		c-2.352-26.318-4.264-54.046-2.273-81.124c2.35-31.973,9.991-59.634,22.711-82.213c9.135-16.218,21.502-30.908,36.521-43.599
		c2.19,2.183,4.222,4.354,6.128,6.552c5.815,6.708,11.196,14.432,17.447,25.045c1.115,1.894,2.206,3.8,3.281,5.715
		c-8.539,10.679-16.28,22.581-24.811,36.065c-4.182,6.61-8.921,14.104-12.871,21.896c-11.542,22.772-16.336,48.962-13.866,75.738
		c2.189,23.736,9.917,45.94,22.443,64.758C120.232,377.192,101.805,367.394,85.384,355.13z M143.902,385.215
		c-13.352-19.021-21.567-41.799-23.822-66.235c-2.428-26.317,2.279-52.049,13.613-74.41c3.897-7.689,8.604-15.13,12.756-21.694
		c8.277-13.082,15.8-24.666,24.023-35.057c5.987,10.869,11.333,22.069,16.03,33.564c-25.71,53.179-27.376,118.257-2.926,172.135
		C169.888,392.083,156.616,389.263,143.902,385.215z M204.711,394.63c-6.185,0-12.3-0.295-18.342-0.844
		c-24.459-52.812-23.325-116.776,1.375-169.365c7.823,19.72,13.743,40.292,17.692,61.544c6.748,36.318,7.394,72.84,1.963,108.632
		C206.503,394.609,205.61,394.63,204.711,394.63z M209.864,394.565c5.407-35.936,4.734-72.592-2.038-109.044
		c-4.115-22.15-10.37-43.562-18.663-64.055c4.865-9.916,10.578-19.407,17.13-28.315c6.584-8.954,12.744-15.646,19.192-20.835
		c17.161,30.241,28.115,64.618,31.903,100.479c4.297,40.672-0.814,81.445-14.775,118.238
		C231.973,393.073,221.035,394.283,209.864,394.565z M245.405,390.483c13.694-36.777,18.674-77.412,14.393-117.942
		c-3.836-36.313-14.957-71.123-32.382-101.727c0.143-0.108,0.285-0.219,0.428-0.325c8.43-6.242,17.746-10.397,29.048-15.18
		c9.028-3.818,17.196-7.179,25.753-9.63c5.716-1.637,11.514-2.778,17.316-3.483c6.34,13.92,11.137,28.359,14.27,43.105
		c3.894,18.323,5.479,38.129,4.848,60.55c-1.25,44.315-11.235,89.021-28.876,129.659
		C276.115,382.178,261.099,387.243,245.405,390.483z M293.581,373.86c17.061-40.217,26.7-84.271,27.932-127.941
		c0.637-22.616-0.965-42.61-4.899-61.124c-3.117-14.67-7.862-29.038-14.117-42.899c19.56-1.922,39.05,1.402,55.542,9.751
		c21.149,10.711,37.328,29.076,44.062,49.389C402.077,276.447,357.885,341.915,293.581,373.86z"/>
</g>
</svg>
